<svg width="25" height="24" viewBox="0 0 25 24" fill="none" xmlns="http://www.w3.org/2000/svg">
<path d="M20.6726 4.10001V6.30001C20.6726 7.10001 20.1726 8.10001 19.6726 8.60001L15.3726 12.4C14.7726 12.9 14.3726 13.9 14.3726 14.7V19C14.3726 19.6 13.9726 20.4 13.4726 20.7L12.0726 21.6C10.7726 22.4 8.97264 21.5 8.97264 19.9V14.6C8.97264 13.9 8.57264 13 8.17264 12.5L7.70264 12.01C7.39264 11.68 7.33264 11.18 7.58264 10.79L12.7026 2.57001C12.8826 2.28001 13.2026 2.10001 13.5526 2.10001H18.6726C19.7726 2.10001 20.6726 3.00001 20.6726 4.10001Z" fill="#757B8C"/>
<path d="M10.4227 3.63001L6.87266 9.32001C6.53266 9.87001 5.75266 9.95001 5.30266 9.48001L4.37266 8.50001C3.87266 8.00001 3.47266 7.10001 3.47266 6.50001V4.20001C3.47266 3.00001 4.37266 2.10001 5.47266 2.10001H9.57266C10.3527 2.10001 10.8327 2.96001 10.4227 3.63001Z" fill="#757B8C"/>
</svg>
