<svg width="26" height="24" viewBox="0 0 26 24" fill="none" xmlns="http://www.w3.org/2000/svg">
<path d="M5.80287 10C4.64667 10 3.70068 10.9 3.70068 12C3.70068 13.1 4.64667 14 5.80287 14C6.95908 14 7.90506 13.1 7.90506 12C7.90506 10.9 6.95908 10 5.80287 10Z" stroke="white" stroke-width="1.5"/>
<path d="M20.5182 10C19.362 10 18.416 10.9 18.416 12C18.416 13.1 19.362 14 20.5182 14C21.6744 14 22.6204 13.1 22.6204 12C22.6204 10.9 21.6744 10 20.5182 10Z" stroke="white" stroke-width="1.5"/>
<path d="M13.1603 10C12.0041 10 11.0581 10.9 11.0581 12C11.0581 13.1 12.0041 14 13.1603 14C14.3165 14 15.2625 13.1 15.2625 12C15.2625 10.9 14.3165 10 13.1603 10Z" stroke="white" stroke-width="1.5"/>
</svg>
