<svg width="23" height="24" viewBox="0 0 23 24" fill="none" xmlns="http://www.w3.org/2000/svg">
<path d="M3.09082 9.10998V14.88C3.09082 17 3.09082 17 4.909 18.35L9.909 21.53C10.6635 22.01 11.8908 22.01 12.6363 21.53L17.6363 18.35C19.4545 17 19.4545 17 19.4545 14.89V9.10998C19.4545 6.99998 19.4545 6.99999 17.6363 5.64999L12.6363 2.46999C11.8908 1.98999 10.6635 1.98999 9.909 2.46999L4.909 5.64999C3.09082 6.99999 3.09082 6.99998 3.09082 9.10998Z" stroke="#98A5CD" stroke-width="1.5" stroke-linecap="round" stroke-linejoin="round"/>
<path d="M11.2727 15C12.7789 15 14 13.6569 14 12C14 10.3431 12.7789 9 11.2727 9C9.76645 9 8.54541 10.3431 8.54541 12C8.54541 13.6569 9.76645 15 11.2727 15Z" stroke="#98A5CD" stroke-width="1.5" stroke-linecap="round" stroke-linejoin="round"/>
</svg>
