<svg width="14" height="13" viewBox="0 0 14 13" fill="none" xmlns="http://www.w3.org/2000/svg">
<path opacity="0.4" d="M7.84683 0.575748L9.33115 3.5586C9.44051 3.77471 9.64922 3.92478 9.88994 3.95813L13.224 4.44371C13.4187 4.47106 13.5954 4.57378 13.7148 4.73053C13.8328 4.88527 13.8835 5.08137 13.8548 5.27414C13.8314 5.43422 13.7561 5.58229 13.6407 5.69568L11.2249 8.03754C11.0482 8.20096 10.9682 8.44308 11.0108 8.67987L11.6056 11.9722C11.669 12.3697 11.4056 12.7446 11.0108 12.82C10.8481 12.846 10.6814 12.8186 10.5347 12.7439L7.56077 11.1945C7.34006 11.0831 7.07933 11.0831 6.85862 11.1945L3.88465 12.7439C3.51924 12.938 3.06647 12.806 2.86309 12.4458C2.78775 12.3024 2.76107 12.139 2.78574 11.9795L3.38054 8.68654C3.42322 8.45042 3.34253 8.20696 3.16649 8.04354L0.750641 5.70302C0.463246 5.42555 0.454578 4.96865 0.731304 4.68117C0.737305 4.67517 0.743973 4.6685 0.750641 4.66183C0.865333 4.5451 1.01603 4.47106 1.17873 4.45172L4.51278 3.96547C4.75283 3.93145 4.96155 3.78271 5.07157 3.56527L6.50254 0.575748C6.6299 0.319618 6.89396 0.160203 7.18069 0.166873H7.27004C7.51876 0.196888 7.73547 0.350967 7.84683 0.575748Z" fill="#FFB545"/>
<path d="M7.19064 11.1114C7.0615 11.1154 6.9357 11.1501 6.82254 11.2122L3.86311 12.7581C3.501 12.9309 3.06767 12.7968 2.86465 12.4505C2.78944 12.3091 2.76214 12.1469 2.78744 11.9881L3.37853 8.70211C3.41846 8.46324 3.33859 8.22038 3.16486 8.05224L0.747922 5.71232C0.461031 5.43143 0.455706 4.97038 0.736606 4.68281C0.7406 4.67881 0.743928 4.67547 0.747922 4.67214C0.862412 4.55871 1.01018 4.48398 1.16927 4.46063L4.50612 3.96956C4.74774 3.93887 4.95742 3.78808 5.06392 3.56923L6.51435 0.542084C6.65214 0.297884 6.91639 0.152431 7.19596 0.167777C7.19064 0.365939 7.19064 10.9766 7.19064 11.1114Z" fill="#FFB545"/>
</svg>
